M48
;DRILL file {KiCad 4.0.7} date 04/17/18 23:54:23
;FORMAT={-:-/ absolute / inch / decimal}
FMAT,2
INCH,TZ
T1C0.035
T2C0.039
%
G90
G05
M72
T1
X5.Y-5.3
X5.09Y-5.4
X5.32Y-5.2
X5.515Y-4.37
X5.65Y-4.47
X6.21Y-4.45
X6.26Y-5.16
X6.32Y-5.07
T2
X4.68Y-4.6
X4.68Y-4.7
X4.68Y-4.8
X4.68Y-4.9
X4.68Y-5.
X4.68Y-5.1
X4.68Y-5.2
X4.68Y-5.3
X4.68Y-5.4
X5.22Y-4.86
X5.23Y-4.27
X5.23Y-4.37
X5.23Y-4.47
X5.32Y-4.86
X5.33Y-4.27
X5.33Y-4.37
X5.33Y-4.47
X5.42Y-4.86
X5.52Y-4.86
X5.5664Y-5.5614
X5.62Y-4.86
X5.6664Y-5.5614
X5.72Y-4.86
X5.7664Y-5.5614
X5.82Y-4.86
X5.85Y-4.27
X5.85Y-4.37
X5.85Y-4.47
X5.8664Y-5.5614
X5.92Y-4.86
X5.95Y-4.27
X5.95Y-4.37
X5.95Y-4.47
X5.9664Y-5.5614
X6.0664Y-5.5614
X6.1664Y-5.5614
X6.2664Y-5.5614
X6.4576Y-4.974
X6.4576Y-5.074
X6.4576Y-5.174
X6.4576Y-5.274
X6.4576Y-5.374
T0
M30
