M48
;DRILL file {KiCad 4.0.7-e2-6376~58~ubuntu16.04.1} date Wed Apr 11 14:47:09 2018
;FORMAT={-:-/ absolute / metric / decimal}
FMAT,2
METRIC,TZ
T1C0.794
T2C1.000
%
G90
G05
M71
T1
X130.454Y-119.253
X130.454Y-129.438
X130.505Y-126.263
X135.052Y-129.337
X139.141Y-113.106
X142.011Y-116.053
X152.654Y-130.048
X152.857Y-133.833
X154.127Y-126.924
X159.156Y-136.601
T2
X118.872Y-116.84
X118.872Y-119.38
X118.872Y-121.92
X118.872Y-124.46
X118.872Y-127.
X118.872Y-129.54
X118.872Y-132.08
X118.872Y-134.62
X118.872Y-137.16
X132.588Y-107.95
X132.588Y-110.49
X132.588Y-113.03
X132.588Y-123.444
X135.128Y-107.95
X135.128Y-110.49
X135.128Y-113.03
X135.128Y-123.444
X137.668Y-123.444
X140.208Y-123.444
X141.387Y-141.26
X142.748Y-123.444
X143.927Y-141.26
X145.288Y-123.444
X146.467Y-141.26
X147.828Y-107.95
X147.828Y-110.49
X147.828Y-113.03
X147.828Y-123.444
X149.007Y-141.26
X150.368Y-107.95
X150.368Y-110.49
X150.368Y-113.03
X150.368Y-123.444
X151.547Y-141.26
X154.087Y-141.26
X156.627Y-141.26
X159.167Y-141.26
X164.023Y-126.34
X164.023Y-128.88
X164.023Y-131.42
X164.023Y-133.96
X164.023Y-136.5
T0
M30
