G04 #@! TF.FileFunction,Copper,L2,Bot,Signal*
%FSLAX46Y46*%
G04 Gerber Fmt 4.6, Leading zero omitted, Abs format (unit mm)*
G04 Created by KiCad (PCBNEW 4.0.7) date 04/17/18 23:54:21*
%MOMM*%
%LPD*%
G01*
G04 APERTURE LIST*
%ADD10C,0.100000*%
%ADD11R,1.700000X1.700000*%
%ADD12O,1.700000X1.700000*%
%ADD13C,1.600000*%
%ADD14C,0.400000*%
G04 APERTURE END LIST*
D10*
D11*
X132842000Y-108458000D03*
D12*
X135382000Y-108458000D03*
X132842000Y-110998000D03*
X135382000Y-110998000D03*
X132842000Y-113538000D03*
X135382000Y-113538000D03*
D11*
X148590000Y-108458000D03*
D12*
X151130000Y-108458000D03*
X148590000Y-110998000D03*
X151130000Y-110998000D03*
X148590000Y-113538000D03*
X151130000Y-113538000D03*
D11*
X118872000Y-137160000D03*
D12*
X118872000Y-134620000D03*
X118872000Y-132080000D03*
X118872000Y-129540000D03*
X118872000Y-127000000D03*
X118872000Y-124460000D03*
X118872000Y-121920000D03*
X118872000Y-119380000D03*
X118872000Y-116840000D03*
D11*
X150368000Y-123444000D03*
D12*
X147828000Y-123444000D03*
X145288000Y-123444000D03*
X142748000Y-123444000D03*
X140208000Y-123444000D03*
X137668000Y-123444000D03*
X135128000Y-123444000D03*
X132588000Y-123444000D03*
D11*
X159166560Y-141259560D03*
D12*
X156626560Y-141259560D03*
X154086560Y-141259560D03*
X151546560Y-141259560D03*
X149006560Y-141259560D03*
X146466560Y-141259560D03*
X143926560Y-141259560D03*
X141386560Y-141259560D03*
D11*
X164023040Y-126339600D03*
D12*
X164023040Y-128879600D03*
X164023040Y-131419600D03*
X164023040Y-133959600D03*
X164023040Y-136499600D03*
D13*
X129286000Y-137160000D03*
X127000000Y-134620000D03*
X135128000Y-132080000D03*
X160528000Y-128778000D03*
X159004000Y-131064000D03*
X143510000Y-113538000D03*
X140081000Y-110998000D03*
X157734000Y-113030000D03*
D14*
X132588000Y-117602000D02*
X144526000Y-117602000D01*
X144526000Y-117602000D02*
X148590000Y-113538000D01*
X132588000Y-123444000D02*
X132588000Y-117602000D01*
X132588000Y-117602000D02*
X132588000Y-113792000D01*
X132588000Y-113792000D02*
X132842000Y-113538000D01*
X132588000Y-133858000D02*
X132588000Y-123444000D01*
X129286000Y-137160000D02*
X132588000Y-133858000D01*
X132842000Y-110998000D02*
X128270000Y-110998000D01*
X127000000Y-112268000D02*
X127000000Y-134620000D01*
X128270000Y-110998000D02*
X127000000Y-112268000D01*
X135128000Y-132080000D02*
X135128000Y-134366000D01*
X140716000Y-113538000D02*
X135382000Y-113538000D01*
X143256000Y-110998000D02*
X140716000Y-113538000D01*
X143256000Y-108712000D02*
X143256000Y-110998000D01*
X140970000Y-106426000D02*
X143256000Y-108712000D01*
X130302000Y-106426000D02*
X140970000Y-106426000D01*
X124968000Y-111760000D02*
X130302000Y-106426000D01*
X124968000Y-135890000D02*
X124968000Y-111760000D01*
X128524000Y-139446000D02*
X124968000Y-135890000D01*
X130048000Y-139446000D02*
X128524000Y-139446000D01*
X135128000Y-134366000D02*
X130048000Y-139446000D01*
X151130000Y-113538000D02*
X151130000Y-116078000D01*
X147320000Y-119888000D02*
X135128000Y-119888000D01*
X151130000Y-116078000D02*
X147320000Y-119888000D01*
X135128000Y-123444000D02*
X135128000Y-119888000D01*
X135128000Y-132080000D02*
X135128000Y-123444000D01*
X140208000Y-125730000D02*
X140208000Y-123444000D01*
X143256000Y-128778000D02*
X140208000Y-125730000D01*
X160528000Y-128778000D02*
X143256000Y-128778000D01*
X137668000Y-127254000D02*
X137668000Y-123444000D01*
X141478000Y-131064000D02*
X137668000Y-127254000D01*
X159004000Y-131064000D02*
X141478000Y-131064000D01*
X148590000Y-110998000D02*
X146050000Y-110998000D01*
X146050000Y-110998000D02*
X143510000Y-113538000D01*
X139700000Y-110998000D02*
X140081000Y-110998000D01*
X139700000Y-110998000D02*
X135382000Y-110998000D01*
X151130000Y-110998000D02*
X155702000Y-110998000D01*
X155702000Y-110998000D02*
X157734000Y-113030000D01*
M02*
