G04 #@! TF.FileFunction,Copper,L2,Bot,Signal*
%FSLAX46Y46*%
G04 Gerber Fmt 4.6, Leading zero omitted, Abs format (unit mm)*
G04 Created by KiCad (PCBNEW 4.0.7-e2-6376~58~ubuntu16.04.1) date Wed Apr 11 12:55:32 2018*
%MOMM*%
%LPD*%
G01*
G04 APERTURE LIST*
%ADD10C,0.100000*%
%ADD11R,1.700000X1.700000*%
%ADD12O,1.700000X1.700000*%
%ADD13C,1.200000*%
%ADD14C,0.350000*%
%ADD15C,0.254000*%
G04 APERTURE END LIST*
D10*
D11*
X147828000Y-107950000D03*
D12*
X150368000Y-107950000D03*
X147828000Y-110490000D03*
X150368000Y-110490000D03*
X147828000Y-113030000D03*
X150368000Y-113030000D03*
D11*
X132588000Y-107950000D03*
D12*
X135128000Y-107950000D03*
X132588000Y-110490000D03*
X135128000Y-110490000D03*
X132588000Y-113030000D03*
X135128000Y-113030000D03*
D11*
X118872000Y-137160000D03*
D12*
X118872000Y-134620000D03*
X118872000Y-132080000D03*
X118872000Y-129540000D03*
X118872000Y-127000000D03*
X118872000Y-124460000D03*
X118872000Y-121920000D03*
X118872000Y-119380000D03*
X118872000Y-116840000D03*
D11*
X150368000Y-123444000D03*
D12*
X147828000Y-123444000D03*
X145288000Y-123444000D03*
X142748000Y-123444000D03*
X140208000Y-123444000D03*
X137668000Y-123444000D03*
X135128000Y-123444000D03*
X132588000Y-123444000D03*
D11*
X159166560Y-141259560D03*
D12*
X156626560Y-141259560D03*
X154086560Y-141259560D03*
X151546560Y-141259560D03*
X149006560Y-141259560D03*
X146466560Y-141259560D03*
X143926560Y-141259560D03*
X141386560Y-141259560D03*
D11*
X164023040Y-126339600D03*
D12*
X164023040Y-128879600D03*
X164023040Y-131419600D03*
X164023040Y-133959600D03*
X164023040Y-136499600D03*
D13*
X130454400Y-129438400D03*
X130454400Y-119253000D03*
X130505200Y-126263400D03*
X142011400Y-116052600D03*
X139141200Y-113106200D03*
X135051800Y-129336800D03*
X159156400Y-136601200D03*
X154127200Y-126923800D03*
X152654000Y-130048000D03*
X152857200Y-133832600D03*
D14*
X132588000Y-119075200D02*
X136067800Y-119075200D01*
X144653000Y-110490000D02*
X147828000Y-110490000D01*
X136067800Y-119075200D02*
X144653000Y-110490000D01*
X131038600Y-110490000D02*
X132638800Y-110490000D01*
X132588000Y-123444000D02*
X132588000Y-119075200D01*
X130149600Y-111379000D02*
X131038600Y-110490000D01*
X130149600Y-116636800D02*
X130149600Y-111379000D01*
X132588000Y-119075200D02*
X130149600Y-116636800D01*
X132588000Y-127304800D02*
X132588000Y-123444000D01*
X130454400Y-129438400D02*
X132588000Y-127304800D01*
X130200400Y-119507000D02*
X130454400Y-119253000D01*
X130200400Y-125958600D02*
X130200400Y-119507000D01*
X130505200Y-126263400D02*
X130200400Y-125958600D01*
X135128000Y-113030000D02*
X139065000Y-113030000D01*
X142011400Y-116052600D02*
X141986000Y-116052600D01*
X139065000Y-113030000D02*
X139141200Y-113106200D01*
X135128000Y-123444000D02*
X135128000Y-122910600D01*
X135128000Y-122910600D02*
X141986000Y-116052600D01*
X150368000Y-115214400D02*
X150368000Y-113030000D01*
X149529800Y-116052600D02*
X150368000Y-115214400D01*
X141986000Y-116052600D02*
X149529800Y-116052600D01*
X135115300Y-129273300D02*
X135051800Y-129336800D01*
X135128000Y-126949200D02*
X135128000Y-123444000D01*
X135115300Y-129273300D02*
X135128000Y-126949200D01*
X150368000Y-107950000D02*
X154127200Y-107950000D01*
X159156400Y-112979200D02*
X159156400Y-136601200D01*
X154127200Y-107950000D02*
X159156400Y-112979200D01*
X143687800Y-126923800D02*
X154127200Y-126923800D01*
X140208000Y-123444000D02*
X143687800Y-126923800D01*
X137668000Y-123444000D02*
X137668000Y-123571000D01*
X137668000Y-123571000D02*
X144145000Y-130048000D01*
X144145000Y-130048000D02*
X152654000Y-130048000D01*
X135128000Y-107950000D02*
X135128000Y-107111800D01*
X135128000Y-107111800D02*
X133934200Y-105918000D01*
X133934200Y-105918000D02*
X130937000Y-105918000D01*
X130937000Y-105918000D02*
X127457200Y-109397800D01*
X127457200Y-109397800D02*
X127457200Y-129184400D01*
X127457200Y-129184400D02*
X132105400Y-133832600D01*
X132105400Y-133832600D02*
X152857200Y-133832600D01*
D15*
G36*
X126682388Y-108622988D02*
X126444859Y-108978474D01*
X126444859Y-108978475D01*
X126361450Y-109397800D01*
X126361450Y-129184400D01*
X126444859Y-129603726D01*
X126682388Y-129959212D01*
X131330587Y-134607412D01*
X131568116Y-134766123D01*
X131686075Y-134844941D01*
X132105400Y-134928350D01*
X151802249Y-134928350D01*
X151994640Y-135121077D01*
X152553377Y-135353085D01*
X153158369Y-135353613D01*
X153717510Y-135122581D01*
X154145677Y-134695160D01*
X154377685Y-134136423D01*
X154378213Y-133531431D01*
X154147181Y-132972290D01*
X153719760Y-132544123D01*
X153161023Y-132312115D01*
X152556031Y-132311587D01*
X151996890Y-132542619D01*
X151802320Y-132736850D01*
X132559275Y-132736850D01*
X130774157Y-130951733D01*
X131314710Y-130728381D01*
X131742877Y-130300960D01*
X131974885Y-129742223D01*
X131975125Y-129467299D01*
X133362812Y-128079612D01*
X133600341Y-127724126D01*
X133683750Y-127304800D01*
X133683750Y-124835276D01*
X133840109Y-124730800D01*
X134043574Y-124426294D01*
X134361076Y-124715645D01*
X134771110Y-124885476D01*
X135001000Y-124764155D01*
X135001000Y-123571000D01*
X134981000Y-123571000D01*
X134981000Y-123317000D01*
X135001000Y-123317000D01*
X135001000Y-122123845D01*
X135255000Y-122123845D01*
X135255000Y-123317000D01*
X135275000Y-123317000D01*
X135275000Y-123571000D01*
X135255000Y-123571000D01*
X135255000Y-124764155D01*
X135484890Y-124885476D01*
X135894924Y-124715645D01*
X136212426Y-124426294D01*
X136415891Y-124730800D01*
X136990363Y-125114651D01*
X137668000Y-125249441D01*
X137775445Y-125228069D01*
X143370188Y-130822812D01*
X143725674Y-131060341D01*
X143795245Y-131074179D01*
X144145000Y-131143750D01*
X151599049Y-131143750D01*
X151791440Y-131336477D01*
X152350177Y-131568485D01*
X152955169Y-131569013D01*
X153514310Y-131337981D01*
X153942477Y-130910560D01*
X154174485Y-130351823D01*
X154175013Y-129746831D01*
X153943981Y-129187690D01*
X153516560Y-128759523D01*
X152957823Y-128527515D01*
X152352831Y-128526987D01*
X151793690Y-128758019D01*
X151599120Y-128952250D01*
X144598874Y-128952250D01*
X143660804Y-128014180D01*
X143687800Y-128019550D01*
X153072249Y-128019550D01*
X153264640Y-128212277D01*
X153823377Y-128444285D01*
X154428369Y-128444813D01*
X154987510Y-128213781D01*
X155415677Y-127786360D01*
X155647685Y-127227623D01*
X155648213Y-126622631D01*
X155417181Y-126063490D01*
X154989760Y-125635323D01*
X154431023Y-125403315D01*
X153826031Y-125402787D01*
X153266890Y-125633819D01*
X153072320Y-125828050D01*
X144141675Y-125828050D01*
X143427219Y-125113594D01*
X144000109Y-124730800D01*
X144018000Y-124704024D01*
X144035891Y-124730800D01*
X144610363Y-125114651D01*
X145288000Y-125249441D01*
X145965637Y-125114651D01*
X146540109Y-124730800D01*
X146558000Y-124704024D01*
X146575891Y-124730800D01*
X147150363Y-125114651D01*
X147828000Y-125249441D01*
X148505637Y-125114651D01*
X148817736Y-124906112D01*
X148845069Y-124948589D01*
X149152759Y-125158825D01*
X149518000Y-125232788D01*
X151218000Y-125232788D01*
X151559209Y-125168585D01*
X151872589Y-124966931D01*
X152082825Y-124659241D01*
X152156788Y-124294000D01*
X152156788Y-122594000D01*
X152092585Y-122252791D01*
X151890931Y-121939411D01*
X151583241Y-121729175D01*
X151218000Y-121655212D01*
X149518000Y-121655212D01*
X149176791Y-121719415D01*
X148863411Y-121921069D01*
X148820564Y-121983777D01*
X148505637Y-121773349D01*
X147828000Y-121638559D01*
X147150363Y-121773349D01*
X146575891Y-122157200D01*
X146558000Y-122183976D01*
X146540109Y-122157200D01*
X145965637Y-121773349D01*
X145288000Y-121638559D01*
X144610363Y-121773349D01*
X144035891Y-122157200D01*
X144018000Y-122183976D01*
X144000109Y-122157200D01*
X143425637Y-121773349D01*
X142748000Y-121638559D01*
X142070363Y-121773349D01*
X141495891Y-122157200D01*
X141478000Y-122183976D01*
X141460109Y-122157200D01*
X140885637Y-121773349D01*
X140208000Y-121638559D01*
X139530363Y-121773349D01*
X138955891Y-122157200D01*
X138938000Y-122183976D01*
X138920109Y-122157200D01*
X138345637Y-121773349D01*
X137668000Y-121638559D01*
X136990363Y-121773349D01*
X136415891Y-122157200D01*
X136212426Y-122461706D01*
X135894924Y-122172355D01*
X135484890Y-122002524D01*
X135255000Y-122123845D01*
X135001000Y-122123845D01*
X134771110Y-122002524D01*
X134361076Y-122172355D01*
X134043574Y-122461706D01*
X133840109Y-122157200D01*
X133683750Y-122052724D01*
X133683750Y-120170950D01*
X136067800Y-120170950D01*
X136487126Y-120087541D01*
X136842612Y-119850012D01*
X145106874Y-111585750D01*
X146436724Y-111585750D01*
X146541200Y-111742109D01*
X146567976Y-111760000D01*
X146541200Y-111777891D01*
X146157349Y-112352363D01*
X146022559Y-113030000D01*
X146157349Y-113707637D01*
X146541200Y-114282109D01*
X147115672Y-114665960D01*
X147793309Y-114800750D01*
X147862691Y-114800750D01*
X148540328Y-114665960D01*
X149114800Y-114282109D01*
X149294046Y-114013849D01*
X149486642Y-114225183D01*
X150011108Y-114471486D01*
X150241000Y-114350819D01*
X150241000Y-113157000D01*
X150495000Y-113157000D01*
X150495000Y-114350819D01*
X150724892Y-114471486D01*
X151249358Y-114225183D01*
X151639645Y-113796924D01*
X151809476Y-113386890D01*
X151688155Y-113157000D01*
X150495000Y-113157000D01*
X150241000Y-113157000D01*
X150221000Y-113157000D01*
X150221000Y-112903000D01*
X150241000Y-112903000D01*
X150241000Y-112883000D01*
X150495000Y-112883000D01*
X150495000Y-112903000D01*
X151688155Y-112903000D01*
X151809476Y-112673110D01*
X151639645Y-112263076D01*
X151350294Y-111945574D01*
X151654800Y-111742109D01*
X152038651Y-111167637D01*
X152173441Y-110490000D01*
X152038651Y-109812363D01*
X151654800Y-109237891D01*
X151628024Y-109220000D01*
X151654800Y-109202109D01*
X151759276Y-109045750D01*
X153673326Y-109045750D01*
X158060650Y-113433074D01*
X158060650Y-135546249D01*
X157867923Y-135738640D01*
X157635915Y-136297377D01*
X157635387Y-136902369D01*
X157866419Y-137461510D01*
X158293840Y-137889677D01*
X158852577Y-138121685D01*
X159457569Y-138122213D01*
X160016710Y-137891181D01*
X160444877Y-137463760D01*
X160676885Y-136905023D01*
X160677413Y-136300031D01*
X160446381Y-135740890D01*
X160252150Y-135546320D01*
X160252150Y-128879600D01*
X162217599Y-128879600D01*
X162352389Y-129557237D01*
X162736240Y-130131709D01*
X162763016Y-130149600D01*
X162736240Y-130167491D01*
X162352389Y-130741963D01*
X162217599Y-131419600D01*
X162352389Y-132097237D01*
X162736240Y-132671709D01*
X162763016Y-132689600D01*
X162736240Y-132707491D01*
X162352389Y-133281963D01*
X162217599Y-133959600D01*
X162352389Y-134637237D01*
X162736240Y-135211709D01*
X162763016Y-135229600D01*
X162736240Y-135247491D01*
X162352389Y-135821963D01*
X162217599Y-136499600D01*
X162352389Y-137177237D01*
X162736240Y-137751709D01*
X163310712Y-138135560D01*
X163988349Y-138270350D01*
X164057731Y-138270350D01*
X164735368Y-138135560D01*
X165309840Y-137751709D01*
X165693691Y-137177237D01*
X165828481Y-136499600D01*
X165693691Y-135821963D01*
X165309840Y-135247491D01*
X165283064Y-135229600D01*
X165309840Y-135211709D01*
X165693691Y-134637237D01*
X165828481Y-133959600D01*
X165693691Y-133281963D01*
X165309840Y-132707491D01*
X165283064Y-132689600D01*
X165309840Y-132671709D01*
X165693691Y-132097237D01*
X165828481Y-131419600D01*
X165693691Y-130741963D01*
X165309840Y-130167491D01*
X165283064Y-130149600D01*
X165309840Y-130131709D01*
X165693691Y-129557237D01*
X165828481Y-128879600D01*
X165693691Y-128201963D01*
X165485152Y-127889864D01*
X165527629Y-127862531D01*
X165737865Y-127554841D01*
X165811828Y-127189600D01*
X165811828Y-125489600D01*
X165747625Y-125148391D01*
X165545971Y-124835011D01*
X165238281Y-124624775D01*
X164873040Y-124550812D01*
X163173040Y-124550812D01*
X162831831Y-124615015D01*
X162518451Y-124816669D01*
X162308215Y-125124359D01*
X162234252Y-125489600D01*
X162234252Y-127189600D01*
X162298455Y-127530809D01*
X162500109Y-127844189D01*
X162562817Y-127887036D01*
X162352389Y-128201963D01*
X162217599Y-128879600D01*
X160252150Y-128879600D01*
X160252150Y-112979200D01*
X160168741Y-112559875D01*
X160168741Y-112559874D01*
X159931212Y-112204388D01*
X154902012Y-107175188D01*
X154546526Y-106937659D01*
X154127200Y-106854250D01*
X151759276Y-106854250D01*
X151654800Y-106697891D01*
X151080328Y-106314040D01*
X150402691Y-106179250D01*
X150333309Y-106179250D01*
X149655672Y-106314040D01*
X149383444Y-106495938D01*
X149350931Y-106445411D01*
X149043241Y-106235175D01*
X148678000Y-106161212D01*
X146978000Y-106161212D01*
X146636791Y-106225415D01*
X146323411Y-106427069D01*
X146113175Y-106734759D01*
X146039212Y-107100000D01*
X146039212Y-108800000D01*
X146103415Y-109141209D01*
X146266242Y-109394250D01*
X144653000Y-109394250D01*
X144349656Y-109454589D01*
X144233674Y-109477659D01*
X143878188Y-109715188D01*
X135613926Y-117979450D01*
X133041875Y-117979450D01*
X131245350Y-116182926D01*
X131245350Y-114198524D01*
X131301200Y-114282109D01*
X131875672Y-114665960D01*
X132553309Y-114800750D01*
X132622691Y-114800750D01*
X133300328Y-114665960D01*
X133874800Y-114282109D01*
X134054046Y-114013849D01*
X134246642Y-114225183D01*
X134771108Y-114471486D01*
X135001000Y-114350819D01*
X135001000Y-113157000D01*
X135255000Y-113157000D01*
X135255000Y-114350819D01*
X135484892Y-114471486D01*
X136009358Y-114225183D01*
X136399645Y-113796924D01*
X136569476Y-113386890D01*
X136448155Y-113157000D01*
X135255000Y-113157000D01*
X135001000Y-113157000D01*
X134981000Y-113157000D01*
X134981000Y-112903000D01*
X135001000Y-112903000D01*
X135001000Y-112883000D01*
X135255000Y-112883000D01*
X135255000Y-112903000D01*
X136448155Y-112903000D01*
X136569476Y-112673110D01*
X136399645Y-112263076D01*
X136110294Y-111945574D01*
X136414800Y-111742109D01*
X136798651Y-111167637D01*
X136933441Y-110490000D01*
X136798651Y-109812363D01*
X136414800Y-109237891D01*
X136388024Y-109220000D01*
X136414800Y-109202109D01*
X136798651Y-108627637D01*
X136933441Y-107950000D01*
X136798651Y-107272363D01*
X136414800Y-106697891D01*
X135925509Y-106370956D01*
X135902812Y-106336988D01*
X135177824Y-105612000D01*
X165914000Y-105612000D01*
X165914000Y-142546000D01*
X160832737Y-142546000D01*
X160881385Y-142474801D01*
X160955348Y-142109560D01*
X160955348Y-140409560D01*
X160891145Y-140068351D01*
X160689491Y-139754971D01*
X160381801Y-139544735D01*
X160016560Y-139470772D01*
X158316560Y-139470772D01*
X157975351Y-139534975D01*
X157661971Y-139736629D01*
X157619124Y-139799337D01*
X157304197Y-139588909D01*
X156626560Y-139454119D01*
X155948923Y-139588909D01*
X155374451Y-139972760D01*
X155170986Y-140277266D01*
X154853484Y-139987915D01*
X154443450Y-139818084D01*
X154213560Y-139939405D01*
X154213560Y-141132560D01*
X154233560Y-141132560D01*
X154233560Y-141386560D01*
X154213560Y-141386560D01*
X154213560Y-141406560D01*
X153959560Y-141406560D01*
X153959560Y-141386560D01*
X153939560Y-141386560D01*
X153939560Y-141132560D01*
X153959560Y-141132560D01*
X153959560Y-139939405D01*
X153729670Y-139818084D01*
X153319636Y-139987915D01*
X153002134Y-140277266D01*
X152798669Y-139972760D01*
X152224197Y-139588909D01*
X151546560Y-139454119D01*
X150868923Y-139588909D01*
X150294451Y-139972760D01*
X150276560Y-139999536D01*
X150258669Y-139972760D01*
X149684197Y-139588909D01*
X149006560Y-139454119D01*
X148328923Y-139588909D01*
X147754451Y-139972760D01*
X147736560Y-139999536D01*
X147718669Y-139972760D01*
X147144197Y-139588909D01*
X146466560Y-139454119D01*
X145788923Y-139588909D01*
X145214451Y-139972760D01*
X145196560Y-139999536D01*
X145178669Y-139972760D01*
X144604197Y-139588909D01*
X143926560Y-139454119D01*
X143248923Y-139588909D01*
X142674451Y-139972760D01*
X142656560Y-139999536D01*
X142638669Y-139972760D01*
X142064197Y-139588909D01*
X141386560Y-139454119D01*
X140708923Y-139588909D01*
X140134451Y-139972760D01*
X139750600Y-140547232D01*
X139615810Y-141224869D01*
X139615810Y-141294251D01*
X139750600Y-141971888D01*
X140134210Y-142546000D01*
X117296000Y-142546000D01*
X117296000Y-138582117D01*
X117349069Y-138664589D01*
X117656759Y-138874825D01*
X118022000Y-138948788D01*
X119722000Y-138948788D01*
X120063209Y-138884585D01*
X120376589Y-138682931D01*
X120586825Y-138375241D01*
X120660788Y-138010000D01*
X120660788Y-136310000D01*
X120596585Y-135968791D01*
X120394931Y-135655411D01*
X120332223Y-135612564D01*
X120542651Y-135297637D01*
X120677441Y-134620000D01*
X120542651Y-133942363D01*
X120158800Y-133367891D01*
X119854294Y-133164426D01*
X120143645Y-132846924D01*
X120313476Y-132436890D01*
X120192155Y-132207000D01*
X118999000Y-132207000D01*
X118999000Y-132227000D01*
X118745000Y-132227000D01*
X118745000Y-132207000D01*
X117551845Y-132207000D01*
X117430524Y-132436890D01*
X117600355Y-132846924D01*
X117889706Y-133164426D01*
X117585200Y-133367891D01*
X117296000Y-133800708D01*
X117296000Y-130359292D01*
X117585200Y-130792109D01*
X117889706Y-130995574D01*
X117600355Y-131313076D01*
X117430524Y-131723110D01*
X117551845Y-131953000D01*
X118745000Y-131953000D01*
X118745000Y-131933000D01*
X118999000Y-131933000D01*
X118999000Y-131953000D01*
X120192155Y-131953000D01*
X120313476Y-131723110D01*
X120143645Y-131313076D01*
X119854294Y-130995574D01*
X120158800Y-130792109D01*
X120542651Y-130217637D01*
X120677441Y-129540000D01*
X120542651Y-128862363D01*
X120158800Y-128287891D01*
X120132024Y-128270000D01*
X120158800Y-128252109D01*
X120542651Y-127677637D01*
X120677441Y-127000000D01*
X120542651Y-126322363D01*
X120158800Y-125747891D01*
X120132024Y-125730000D01*
X120158800Y-125712109D01*
X120542651Y-125137637D01*
X120677441Y-124460000D01*
X120542651Y-123782363D01*
X120158800Y-123207891D01*
X120132024Y-123190000D01*
X120158800Y-123172109D01*
X120542651Y-122597637D01*
X120677441Y-121920000D01*
X120542651Y-121242363D01*
X120158800Y-120667891D01*
X120132024Y-120650000D01*
X120158800Y-120632109D01*
X120542651Y-120057637D01*
X120677441Y-119380000D01*
X120542651Y-118702363D01*
X120158800Y-118127891D01*
X120132024Y-118110000D01*
X120158800Y-118092109D01*
X120542651Y-117517637D01*
X120677441Y-116840000D01*
X120542651Y-116162363D01*
X120158800Y-115587891D01*
X119584328Y-115204040D01*
X118906691Y-115069250D01*
X118837309Y-115069250D01*
X118159672Y-115204040D01*
X117585200Y-115587891D01*
X117296000Y-116020708D01*
X117296000Y-105612000D01*
X129693375Y-105612000D01*
X126682388Y-108622988D01*
X126682388Y-108622988D01*
G37*
X126682388Y-108622988D02*
X126444859Y-108978474D01*
X126444859Y-108978475D01*
X126361450Y-109397800D01*
X126361450Y-129184400D01*
X126444859Y-129603726D01*
X126682388Y-129959212D01*
X131330587Y-134607412D01*
X131568116Y-134766123D01*
X131686075Y-134844941D01*
X132105400Y-134928350D01*
X151802249Y-134928350D01*
X151994640Y-135121077D01*
X152553377Y-135353085D01*
X153158369Y-135353613D01*
X153717510Y-135122581D01*
X154145677Y-134695160D01*
X154377685Y-134136423D01*
X154378213Y-133531431D01*
X154147181Y-132972290D01*
X153719760Y-132544123D01*
X153161023Y-132312115D01*
X152556031Y-132311587D01*
X151996890Y-132542619D01*
X151802320Y-132736850D01*
X132559275Y-132736850D01*
X130774157Y-130951733D01*
X131314710Y-130728381D01*
X131742877Y-130300960D01*
X131974885Y-129742223D01*
X131975125Y-129467299D01*
X133362812Y-128079612D01*
X133600341Y-127724126D01*
X133683750Y-127304800D01*
X133683750Y-124835276D01*
X133840109Y-124730800D01*
X134043574Y-124426294D01*
X134361076Y-124715645D01*
X134771110Y-124885476D01*
X135001000Y-124764155D01*
X135001000Y-123571000D01*
X134981000Y-123571000D01*
X134981000Y-123317000D01*
X135001000Y-123317000D01*
X135001000Y-122123845D01*
X135255000Y-122123845D01*
X135255000Y-123317000D01*
X135275000Y-123317000D01*
X135275000Y-123571000D01*
X135255000Y-123571000D01*
X135255000Y-124764155D01*
X135484890Y-124885476D01*
X135894924Y-124715645D01*
X136212426Y-124426294D01*
X136415891Y-124730800D01*
X136990363Y-125114651D01*
X137668000Y-125249441D01*
X137775445Y-125228069D01*
X143370188Y-130822812D01*
X143725674Y-131060341D01*
X143795245Y-131074179D01*
X144145000Y-131143750D01*
X151599049Y-131143750D01*
X151791440Y-131336477D01*
X152350177Y-131568485D01*
X152955169Y-131569013D01*
X153514310Y-131337981D01*
X153942477Y-130910560D01*
X154174485Y-130351823D01*
X154175013Y-129746831D01*
X153943981Y-129187690D01*
X153516560Y-128759523D01*
X152957823Y-128527515D01*
X152352831Y-128526987D01*
X151793690Y-128758019D01*
X151599120Y-128952250D01*
X144598874Y-128952250D01*
X143660804Y-128014180D01*
X143687800Y-128019550D01*
X153072249Y-128019550D01*
X153264640Y-128212277D01*
X153823377Y-128444285D01*
X154428369Y-128444813D01*
X154987510Y-128213781D01*
X155415677Y-127786360D01*
X155647685Y-127227623D01*
X155648213Y-126622631D01*
X155417181Y-126063490D01*
X154989760Y-125635323D01*
X154431023Y-125403315D01*
X153826031Y-125402787D01*
X153266890Y-125633819D01*
X153072320Y-125828050D01*
X144141675Y-125828050D01*
X143427219Y-125113594D01*
X144000109Y-124730800D01*
X144018000Y-124704024D01*
X144035891Y-124730800D01*
X144610363Y-125114651D01*
X145288000Y-125249441D01*
X145965637Y-125114651D01*
X146540109Y-124730800D01*
X146558000Y-124704024D01*
X146575891Y-124730800D01*
X147150363Y-125114651D01*
X147828000Y-125249441D01*
X148505637Y-125114651D01*
X148817736Y-124906112D01*
X148845069Y-124948589D01*
X149152759Y-125158825D01*
X149518000Y-125232788D01*
X151218000Y-125232788D01*
X151559209Y-125168585D01*
X151872589Y-124966931D01*
X152082825Y-124659241D01*
X152156788Y-124294000D01*
X152156788Y-122594000D01*
X152092585Y-122252791D01*
X151890931Y-121939411D01*
X151583241Y-121729175D01*
X151218000Y-121655212D01*
X149518000Y-121655212D01*
X149176791Y-121719415D01*
X148863411Y-121921069D01*
X148820564Y-121983777D01*
X148505637Y-121773349D01*
X147828000Y-121638559D01*
X147150363Y-121773349D01*
X146575891Y-122157200D01*
X146558000Y-122183976D01*
X146540109Y-122157200D01*
X145965637Y-121773349D01*
X145288000Y-121638559D01*
X144610363Y-121773349D01*
X144035891Y-122157200D01*
X144018000Y-122183976D01*
X144000109Y-122157200D01*
X143425637Y-121773349D01*
X142748000Y-121638559D01*
X142070363Y-121773349D01*
X141495891Y-122157200D01*
X141478000Y-122183976D01*
X141460109Y-122157200D01*
X140885637Y-121773349D01*
X140208000Y-121638559D01*
X139530363Y-121773349D01*
X138955891Y-122157200D01*
X138938000Y-122183976D01*
X138920109Y-122157200D01*
X138345637Y-121773349D01*
X137668000Y-121638559D01*
X136990363Y-121773349D01*
X136415891Y-122157200D01*
X136212426Y-122461706D01*
X135894924Y-122172355D01*
X135484890Y-122002524D01*
X135255000Y-122123845D01*
X135001000Y-122123845D01*
X134771110Y-122002524D01*
X134361076Y-122172355D01*
X134043574Y-122461706D01*
X133840109Y-122157200D01*
X133683750Y-122052724D01*
X133683750Y-120170950D01*
X136067800Y-120170950D01*
X136487126Y-120087541D01*
X136842612Y-119850012D01*
X145106874Y-111585750D01*
X146436724Y-111585750D01*
X146541200Y-111742109D01*
X146567976Y-111760000D01*
X146541200Y-111777891D01*
X146157349Y-112352363D01*
X146022559Y-113030000D01*
X146157349Y-113707637D01*
X146541200Y-114282109D01*
X147115672Y-114665960D01*
X147793309Y-114800750D01*
X147862691Y-114800750D01*
X148540328Y-114665960D01*
X149114800Y-114282109D01*
X149294046Y-114013849D01*
X149486642Y-114225183D01*
X150011108Y-114471486D01*
X150241000Y-114350819D01*
X150241000Y-113157000D01*
X150495000Y-113157000D01*
X150495000Y-114350819D01*
X150724892Y-114471486D01*
X151249358Y-114225183D01*
X151639645Y-113796924D01*
X151809476Y-113386890D01*
X151688155Y-113157000D01*
X150495000Y-113157000D01*
X150241000Y-113157000D01*
X150221000Y-113157000D01*
X150221000Y-112903000D01*
X150241000Y-112903000D01*
X150241000Y-112883000D01*
X150495000Y-112883000D01*
X150495000Y-112903000D01*
X151688155Y-112903000D01*
X151809476Y-112673110D01*
X151639645Y-112263076D01*
X151350294Y-111945574D01*
X151654800Y-111742109D01*
X152038651Y-111167637D01*
X152173441Y-110490000D01*
X152038651Y-109812363D01*
X151654800Y-109237891D01*
X151628024Y-109220000D01*
X151654800Y-109202109D01*
X151759276Y-109045750D01*
X153673326Y-109045750D01*
X158060650Y-113433074D01*
X158060650Y-135546249D01*
X157867923Y-135738640D01*
X157635915Y-136297377D01*
X157635387Y-136902369D01*
X157866419Y-137461510D01*
X158293840Y-137889677D01*
X158852577Y-138121685D01*
X159457569Y-138122213D01*
X160016710Y-137891181D01*
X160444877Y-137463760D01*
X160676885Y-136905023D01*
X160677413Y-136300031D01*
X160446381Y-135740890D01*
X160252150Y-135546320D01*
X160252150Y-128879600D01*
X162217599Y-128879600D01*
X162352389Y-129557237D01*
X162736240Y-130131709D01*
X162763016Y-130149600D01*
X162736240Y-130167491D01*
X162352389Y-130741963D01*
X162217599Y-131419600D01*
X162352389Y-132097237D01*
X162736240Y-132671709D01*
X162763016Y-132689600D01*
X162736240Y-132707491D01*
X162352389Y-133281963D01*
X162217599Y-133959600D01*
X162352389Y-134637237D01*
X162736240Y-135211709D01*
X162763016Y-135229600D01*
X162736240Y-135247491D01*
X162352389Y-135821963D01*
X162217599Y-136499600D01*
X162352389Y-137177237D01*
X162736240Y-137751709D01*
X163310712Y-138135560D01*
X163988349Y-138270350D01*
X164057731Y-138270350D01*
X164735368Y-138135560D01*
X165309840Y-137751709D01*
X165693691Y-137177237D01*
X165828481Y-136499600D01*
X165693691Y-135821963D01*
X165309840Y-135247491D01*
X165283064Y-135229600D01*
X165309840Y-135211709D01*
X165693691Y-134637237D01*
X165828481Y-133959600D01*
X165693691Y-133281963D01*
X165309840Y-132707491D01*
X165283064Y-132689600D01*
X165309840Y-132671709D01*
X165693691Y-132097237D01*
X165828481Y-131419600D01*
X165693691Y-130741963D01*
X165309840Y-130167491D01*
X165283064Y-130149600D01*
X165309840Y-130131709D01*
X165693691Y-129557237D01*
X165828481Y-128879600D01*
X165693691Y-128201963D01*
X165485152Y-127889864D01*
X165527629Y-127862531D01*
X165737865Y-127554841D01*
X165811828Y-127189600D01*
X165811828Y-125489600D01*
X165747625Y-125148391D01*
X165545971Y-124835011D01*
X165238281Y-124624775D01*
X164873040Y-124550812D01*
X163173040Y-124550812D01*
X162831831Y-124615015D01*
X162518451Y-124816669D01*
X162308215Y-125124359D01*
X162234252Y-125489600D01*
X162234252Y-127189600D01*
X162298455Y-127530809D01*
X162500109Y-127844189D01*
X162562817Y-127887036D01*
X162352389Y-128201963D01*
X162217599Y-128879600D01*
X160252150Y-128879600D01*
X160252150Y-112979200D01*
X160168741Y-112559875D01*
X160168741Y-112559874D01*
X159931212Y-112204388D01*
X154902012Y-107175188D01*
X154546526Y-106937659D01*
X154127200Y-106854250D01*
X151759276Y-106854250D01*
X151654800Y-106697891D01*
X151080328Y-106314040D01*
X150402691Y-106179250D01*
X150333309Y-106179250D01*
X149655672Y-106314040D01*
X149383444Y-106495938D01*
X149350931Y-106445411D01*
X149043241Y-106235175D01*
X148678000Y-106161212D01*
X146978000Y-106161212D01*
X146636791Y-106225415D01*
X146323411Y-106427069D01*
X146113175Y-106734759D01*
X146039212Y-107100000D01*
X146039212Y-108800000D01*
X146103415Y-109141209D01*
X146266242Y-109394250D01*
X144653000Y-109394250D01*
X144349656Y-109454589D01*
X144233674Y-109477659D01*
X143878188Y-109715188D01*
X135613926Y-117979450D01*
X133041875Y-117979450D01*
X131245350Y-116182926D01*
X131245350Y-114198524D01*
X131301200Y-114282109D01*
X131875672Y-114665960D01*
X132553309Y-114800750D01*
X132622691Y-114800750D01*
X133300328Y-114665960D01*
X133874800Y-114282109D01*
X134054046Y-114013849D01*
X134246642Y-114225183D01*
X134771108Y-114471486D01*
X135001000Y-114350819D01*
X135001000Y-113157000D01*
X135255000Y-113157000D01*
X135255000Y-114350819D01*
X135484892Y-114471486D01*
X136009358Y-114225183D01*
X136399645Y-113796924D01*
X136569476Y-113386890D01*
X136448155Y-113157000D01*
X135255000Y-113157000D01*
X135001000Y-113157000D01*
X134981000Y-113157000D01*
X134981000Y-112903000D01*
X135001000Y-112903000D01*
X135001000Y-112883000D01*
X135255000Y-112883000D01*
X135255000Y-112903000D01*
X136448155Y-112903000D01*
X136569476Y-112673110D01*
X136399645Y-112263076D01*
X136110294Y-111945574D01*
X136414800Y-111742109D01*
X136798651Y-111167637D01*
X136933441Y-110490000D01*
X136798651Y-109812363D01*
X136414800Y-109237891D01*
X136388024Y-109220000D01*
X136414800Y-109202109D01*
X136798651Y-108627637D01*
X136933441Y-107950000D01*
X136798651Y-107272363D01*
X136414800Y-106697891D01*
X135925509Y-106370956D01*
X135902812Y-106336988D01*
X135177824Y-105612000D01*
X165914000Y-105612000D01*
X165914000Y-142546000D01*
X160832737Y-142546000D01*
X160881385Y-142474801D01*
X160955348Y-142109560D01*
X160955348Y-140409560D01*
X160891145Y-140068351D01*
X160689491Y-139754971D01*
X160381801Y-139544735D01*
X160016560Y-139470772D01*
X158316560Y-139470772D01*
X157975351Y-139534975D01*
X157661971Y-139736629D01*
X157619124Y-139799337D01*
X157304197Y-139588909D01*
X156626560Y-139454119D01*
X155948923Y-139588909D01*
X155374451Y-139972760D01*
X155170986Y-140277266D01*
X154853484Y-139987915D01*
X154443450Y-139818084D01*
X154213560Y-139939405D01*
X154213560Y-141132560D01*
X154233560Y-141132560D01*
X154233560Y-141386560D01*
X154213560Y-141386560D01*
X154213560Y-141406560D01*
X153959560Y-141406560D01*
X153959560Y-141386560D01*
X153939560Y-141386560D01*
X153939560Y-141132560D01*
X153959560Y-141132560D01*
X153959560Y-139939405D01*
X153729670Y-139818084D01*
X153319636Y-139987915D01*
X153002134Y-140277266D01*
X152798669Y-139972760D01*
X152224197Y-139588909D01*
X151546560Y-139454119D01*
X150868923Y-139588909D01*
X150294451Y-139972760D01*
X150276560Y-139999536D01*
X150258669Y-139972760D01*
X149684197Y-139588909D01*
X149006560Y-139454119D01*
X148328923Y-139588909D01*
X147754451Y-139972760D01*
X147736560Y-139999536D01*
X147718669Y-139972760D01*
X147144197Y-139588909D01*
X146466560Y-139454119D01*
X145788923Y-139588909D01*
X145214451Y-139972760D01*
X145196560Y-139999536D01*
X145178669Y-139972760D01*
X144604197Y-139588909D01*
X143926560Y-139454119D01*
X143248923Y-139588909D01*
X142674451Y-139972760D01*
X142656560Y-139999536D01*
X142638669Y-139972760D01*
X142064197Y-139588909D01*
X141386560Y-139454119D01*
X140708923Y-139588909D01*
X140134451Y-139972760D01*
X139750600Y-140547232D01*
X139615810Y-141224869D01*
X139615810Y-141294251D01*
X139750600Y-141971888D01*
X140134210Y-142546000D01*
X117296000Y-142546000D01*
X117296000Y-138582117D01*
X117349069Y-138664589D01*
X117656759Y-138874825D01*
X118022000Y-138948788D01*
X119722000Y-138948788D01*
X120063209Y-138884585D01*
X120376589Y-138682931D01*
X120586825Y-138375241D01*
X120660788Y-138010000D01*
X120660788Y-136310000D01*
X120596585Y-135968791D01*
X120394931Y-135655411D01*
X120332223Y-135612564D01*
X120542651Y-135297637D01*
X120677441Y-134620000D01*
X120542651Y-133942363D01*
X120158800Y-133367891D01*
X119854294Y-133164426D01*
X120143645Y-132846924D01*
X120313476Y-132436890D01*
X120192155Y-132207000D01*
X118999000Y-132207000D01*
X118999000Y-132227000D01*
X118745000Y-132227000D01*
X118745000Y-132207000D01*
X117551845Y-132207000D01*
X117430524Y-132436890D01*
X117600355Y-132846924D01*
X117889706Y-133164426D01*
X117585200Y-133367891D01*
X117296000Y-133800708D01*
X117296000Y-130359292D01*
X117585200Y-130792109D01*
X117889706Y-130995574D01*
X117600355Y-131313076D01*
X117430524Y-131723110D01*
X117551845Y-131953000D01*
X118745000Y-131953000D01*
X118745000Y-131933000D01*
X118999000Y-131933000D01*
X118999000Y-131953000D01*
X120192155Y-131953000D01*
X120313476Y-131723110D01*
X120143645Y-131313076D01*
X119854294Y-130995574D01*
X120158800Y-130792109D01*
X120542651Y-130217637D01*
X120677441Y-129540000D01*
X120542651Y-128862363D01*
X120158800Y-128287891D01*
X120132024Y-128270000D01*
X120158800Y-128252109D01*
X120542651Y-127677637D01*
X120677441Y-127000000D01*
X120542651Y-126322363D01*
X120158800Y-125747891D01*
X120132024Y-125730000D01*
X120158800Y-125712109D01*
X120542651Y-125137637D01*
X120677441Y-124460000D01*
X120542651Y-123782363D01*
X120158800Y-123207891D01*
X120132024Y-123190000D01*
X120158800Y-123172109D01*
X120542651Y-122597637D01*
X120677441Y-121920000D01*
X120542651Y-121242363D01*
X120158800Y-120667891D01*
X120132024Y-120650000D01*
X120158800Y-120632109D01*
X120542651Y-120057637D01*
X120677441Y-119380000D01*
X120542651Y-118702363D01*
X120158800Y-118127891D01*
X120132024Y-118110000D01*
X120158800Y-118092109D01*
X120542651Y-117517637D01*
X120677441Y-116840000D01*
X120542651Y-116162363D01*
X120158800Y-115587891D01*
X119584328Y-115204040D01*
X118906691Y-115069250D01*
X118837309Y-115069250D01*
X118159672Y-115204040D01*
X117585200Y-115587891D01*
X117296000Y-116020708D01*
X117296000Y-105612000D01*
X129693375Y-105612000D01*
X126682388Y-108622988D01*
G36*
X130799212Y-108800000D02*
X130863415Y-109141209D01*
X131027644Y-109396429D01*
X130619274Y-109477659D01*
X130263788Y-109715188D01*
X129374788Y-110604188D01*
X129137259Y-110959674D01*
X129137259Y-110959675D01*
X129053850Y-111379000D01*
X129053850Y-116636800D01*
X129137259Y-117056126D01*
X129374788Y-117411612D01*
X131492250Y-119529075D01*
X131492250Y-122052724D01*
X131335891Y-122157200D01*
X130952040Y-122731672D01*
X130817250Y-123409309D01*
X130817250Y-123478691D01*
X130952040Y-124156328D01*
X131335891Y-124730800D01*
X131492250Y-124835276D01*
X131492250Y-126850926D01*
X130425551Y-127917625D01*
X130153231Y-127917387D01*
X129594090Y-128148419D01*
X129165923Y-128575840D01*
X128940689Y-129118264D01*
X128552950Y-128730526D01*
X128552950Y-109851674D01*
X130799212Y-107605413D01*
X130799212Y-108800000D01*
X130799212Y-108800000D01*
G37*
X130799212Y-108800000D02*
X130863415Y-109141209D01*
X131027644Y-109396429D01*
X130619274Y-109477659D01*
X130263788Y-109715188D01*
X129374788Y-110604188D01*
X129137259Y-110959674D01*
X129137259Y-110959675D01*
X129053850Y-111379000D01*
X129053850Y-116636800D01*
X129137259Y-117056126D01*
X129374788Y-117411612D01*
X131492250Y-119529075D01*
X131492250Y-122052724D01*
X131335891Y-122157200D01*
X130952040Y-122731672D01*
X130817250Y-123409309D01*
X130817250Y-123478691D01*
X130952040Y-124156328D01*
X131335891Y-124730800D01*
X131492250Y-124835276D01*
X131492250Y-126850926D01*
X130425551Y-127917625D01*
X130153231Y-127917387D01*
X129594090Y-128148419D01*
X129165923Y-128575840D01*
X128940689Y-129118264D01*
X128552950Y-128730526D01*
X128552950Y-109851674D01*
X130799212Y-107605413D01*
X130799212Y-108800000D01*
M02*
