G04 #@! TF.FileFunction,Copper,L1,Top,Signal*
%FSLAX46Y46*%
G04 Gerber Fmt 4.6, Leading zero omitted, Abs format (unit mm)*
G04 Created by KiCad (PCBNEW 4.0.7) date 04/17/18 23:54:21*
%MOMM*%
%LPD*%
G01*
G04 APERTURE LIST*
%ADD10C,0.100000*%
%ADD11R,1.700000X1.700000*%
%ADD12O,1.700000X1.700000*%
%ADD13C,1.600000*%
%ADD14C,0.400000*%
G04 APERTURE END LIST*
D10*
D11*
X132842000Y-108458000D03*
D12*
X135382000Y-108458000D03*
X132842000Y-110998000D03*
X135382000Y-110998000D03*
X132842000Y-113538000D03*
X135382000Y-113538000D03*
D11*
X148590000Y-108458000D03*
D12*
X151130000Y-108458000D03*
X148590000Y-110998000D03*
X151130000Y-110998000D03*
X148590000Y-113538000D03*
X151130000Y-113538000D03*
D11*
X118872000Y-137160000D03*
D12*
X118872000Y-134620000D03*
X118872000Y-132080000D03*
X118872000Y-129540000D03*
X118872000Y-127000000D03*
X118872000Y-124460000D03*
X118872000Y-121920000D03*
X118872000Y-119380000D03*
X118872000Y-116840000D03*
D11*
X150368000Y-123444000D03*
D12*
X147828000Y-123444000D03*
X145288000Y-123444000D03*
X142748000Y-123444000D03*
X140208000Y-123444000D03*
X137668000Y-123444000D03*
X135128000Y-123444000D03*
X132588000Y-123444000D03*
D11*
X159166560Y-141259560D03*
D12*
X156626560Y-141259560D03*
X154086560Y-141259560D03*
X151546560Y-141259560D03*
X149006560Y-141259560D03*
X146466560Y-141259560D03*
X143926560Y-141259560D03*
X141386560Y-141259560D03*
D11*
X164023040Y-126339600D03*
D12*
X164023040Y-128879600D03*
X164023040Y-131419600D03*
X164023040Y-133959600D03*
X164023040Y-136499600D03*
D13*
X129286000Y-137160000D03*
X127000000Y-134620000D03*
X135128000Y-132080000D03*
X160528000Y-128778000D03*
X159004000Y-131064000D03*
X143510000Y-113538000D03*
X140081000Y-110998000D03*
X157734000Y-113030000D03*
D14*
X118872000Y-137160000D02*
X129286000Y-137160000D01*
X127000000Y-134620000D02*
X118872000Y-134620000D01*
X118872000Y-132080000D02*
X135128000Y-132080000D01*
X164023040Y-128879600D02*
X160629600Y-128879600D01*
X160629600Y-128879600D02*
X160528000Y-128778000D01*
X164023040Y-131419600D02*
X159359600Y-131419600D01*
X159359600Y-131419600D02*
X159004000Y-131064000D01*
X156626560Y-136560560D02*
X156626560Y-141259560D01*
X154686000Y-134620000D02*
X156626560Y-136560560D01*
X154686000Y-118872000D02*
X154686000Y-134620000D01*
X152400000Y-116586000D02*
X154686000Y-118872000D01*
X146558000Y-116586000D02*
X152400000Y-116586000D01*
X143510000Y-113538000D02*
X146558000Y-116586000D01*
X141224000Y-112395000D02*
X141224000Y-115824000D01*
X141224000Y-115824000D02*
X144272000Y-118872000D01*
X144272000Y-118872000D02*
X151892000Y-118872000D01*
X151892000Y-118872000D02*
X153162000Y-120142000D01*
X153162000Y-120142000D02*
X153162000Y-130302000D01*
X153162000Y-130302000D02*
X149860000Y-133604000D01*
X149860000Y-133604000D02*
X145542000Y-133604000D01*
X145542000Y-133604000D02*
X143926560Y-135219440D01*
X143926560Y-141259560D02*
X143926560Y-135219440D01*
X141224000Y-112141000D02*
X141224000Y-112395000D01*
X140081000Y-110998000D02*
X141224000Y-112141000D01*
X159166560Y-136306560D02*
X159166560Y-141259560D01*
X156210000Y-133350000D02*
X159166560Y-136306560D01*
X156210000Y-114554000D02*
X156210000Y-133350000D01*
X157734000Y-113030000D02*
X156210000Y-114554000D01*
M02*
