G04 #@! TF.FileFunction,Copper,L1,Top,Signal*
%FSLAX46Y46*%
G04 Gerber Fmt 4.6, Leading zero omitted, Abs format (unit mm)*
G04 Created by KiCad (PCBNEW 4.0.7-e2-6376~58~ubuntu16.04.1) date Fri Apr 13 14:41:24 2018*
%MOMM*%
%LPD*%
G01*
G04 APERTURE LIST*
%ADD10C,0.100000*%
%ADD11R,1.700000X1.700000*%
%ADD12O,1.700000X1.700000*%
%ADD13R,1.750000X0.460000*%
%ADD14C,0.450000*%
%ADD15C,0.500000*%
%ADD16C,0.254000*%
G04 APERTURE END LIST*
D10*
D11*
X153162000Y-116332000D03*
D12*
X150622000Y-116332000D03*
X148082000Y-116332000D03*
D13*
X146795000Y-107315000D03*
X146795000Y-108585000D03*
X146795000Y-109855000D03*
X146795000Y-111125000D03*
X154195000Y-111125000D03*
X154195000Y-109855000D03*
X154195000Y-108585000D03*
X154195000Y-107315000D03*
D14*
X146795000Y-107315000D02*
X145288000Y-107315000D01*
X149479000Y-105918000D02*
X152146000Y-108585000D01*
X145288000Y-105918000D02*
X149479000Y-105918000D01*
X145034000Y-106172000D02*
X145288000Y-105918000D01*
X145034000Y-107061000D02*
X145034000Y-106172000D01*
X145288000Y-107315000D02*
X145034000Y-107061000D01*
D15*
X154195000Y-108585000D02*
X152146000Y-108585000D01*
D14*
X150622000Y-110109000D02*
X150622000Y-116332000D01*
X152146000Y-108585000D02*
X150622000Y-110109000D01*
X146795000Y-108585000D02*
X148463000Y-108585000D01*
X148463000Y-108585000D02*
X149225000Y-109347000D01*
X149225000Y-109347000D02*
X149225000Y-112903000D01*
X149225000Y-112903000D02*
X148082000Y-114046000D01*
X148082000Y-114046000D02*
X148082000Y-116332000D01*
D15*
X154195000Y-109855000D02*
X152654000Y-109855000D01*
X153162000Y-114173000D02*
X153162000Y-116332000D01*
X151892000Y-112903000D02*
X153162000Y-114173000D01*
X151892000Y-110617000D02*
X151892000Y-112903000D01*
X152654000Y-109855000D02*
X151892000Y-110617000D01*
D16*
G36*
X156268591Y-109477703D02*
X156838298Y-110048405D01*
X157583036Y-110357647D01*
X158389426Y-110358351D01*
X159134703Y-110050409D01*
X159564000Y-109621860D01*
X159564000Y-112735908D01*
X154645908Y-117654000D01*
X154438026Y-117654000D01*
X154550327Y-117541698D01*
X154647000Y-117308309D01*
X154647000Y-116617750D01*
X154488250Y-116459000D01*
X153289000Y-116459000D01*
X153289000Y-116479000D01*
X153035000Y-116479000D01*
X153035000Y-116459000D01*
X153015000Y-116459000D01*
X153015000Y-116205000D01*
X153035000Y-116205000D01*
X153035000Y-115005750D01*
X153289000Y-115005750D01*
X153289000Y-116205000D01*
X154488250Y-116205000D01*
X154647000Y-116046250D01*
X154647000Y-115355691D01*
X154550327Y-115122302D01*
X154371699Y-114943673D01*
X154138310Y-114847000D01*
X153447750Y-114847000D01*
X153289000Y-115005750D01*
X153035000Y-115005750D01*
X152876250Y-114847000D01*
X152185690Y-114847000D01*
X151952301Y-114943673D01*
X151864614Y-115031360D01*
X151774000Y-114970814D01*
X151774000Y-110895000D01*
X152374839Y-110895000D01*
X152374839Y-111355000D01*
X152439478Y-111698526D01*
X152642501Y-112014033D01*
X152952279Y-112225696D01*
X153320000Y-112300161D01*
X155070000Y-112300161D01*
X155413526Y-112235522D01*
X155729033Y-112032499D01*
X155940696Y-111722721D01*
X156015161Y-111355000D01*
X156015161Y-110895000D01*
X155950522Y-110551474D01*
X155747499Y-110235967D01*
X155705000Y-110206929D01*
X155705000Y-110128750D01*
X155546250Y-109970000D01*
X155169558Y-109970000D01*
X155070000Y-109949839D01*
X153320000Y-109949839D01*
X153212854Y-109970000D01*
X152843750Y-109970000D01*
X152685000Y-110128750D01*
X152685000Y-110202036D01*
X152660967Y-110217501D01*
X152449304Y-110527279D01*
X152374839Y-110895000D01*
X151774000Y-110895000D01*
X151774000Y-110586174D01*
X152598174Y-109762000D01*
X154195000Y-109762000D01*
X154204245Y-109760161D01*
X155070000Y-109760161D01*
X155177146Y-109740000D01*
X155546250Y-109740000D01*
X155705000Y-109581250D01*
X155705000Y-109507964D01*
X155729033Y-109492499D01*
X155940696Y-109182721D01*
X156008454Y-108848122D01*
X156268591Y-109477703D01*
X156268591Y-109477703D01*
G37*
X156268591Y-109477703D02*
X156838298Y-110048405D01*
X157583036Y-110357647D01*
X158389426Y-110358351D01*
X159134703Y-110050409D01*
X159564000Y-109621860D01*
X159564000Y-112735908D01*
X154645908Y-117654000D01*
X154438026Y-117654000D01*
X154550327Y-117541698D01*
X154647000Y-117308309D01*
X154647000Y-116617750D01*
X154488250Y-116459000D01*
X153289000Y-116459000D01*
X153289000Y-116479000D01*
X153035000Y-116479000D01*
X153035000Y-116459000D01*
X153015000Y-116459000D01*
X153015000Y-116205000D01*
X153035000Y-116205000D01*
X153035000Y-115005750D01*
X153289000Y-115005750D01*
X153289000Y-116205000D01*
X154488250Y-116205000D01*
X154647000Y-116046250D01*
X154647000Y-115355691D01*
X154550327Y-115122302D01*
X154371699Y-114943673D01*
X154138310Y-114847000D01*
X153447750Y-114847000D01*
X153289000Y-115005750D01*
X153035000Y-115005750D01*
X152876250Y-114847000D01*
X152185690Y-114847000D01*
X151952301Y-114943673D01*
X151864614Y-115031360D01*
X151774000Y-114970814D01*
X151774000Y-110895000D01*
X152374839Y-110895000D01*
X152374839Y-111355000D01*
X152439478Y-111698526D01*
X152642501Y-112014033D01*
X152952279Y-112225696D01*
X153320000Y-112300161D01*
X155070000Y-112300161D01*
X155413526Y-112235522D01*
X155729033Y-112032499D01*
X155940696Y-111722721D01*
X156015161Y-111355000D01*
X156015161Y-110895000D01*
X155950522Y-110551474D01*
X155747499Y-110235967D01*
X155705000Y-110206929D01*
X155705000Y-110128750D01*
X155546250Y-109970000D01*
X155169558Y-109970000D01*
X155070000Y-109949839D01*
X153320000Y-109949839D01*
X153212854Y-109970000D01*
X152843750Y-109970000D01*
X152685000Y-110128750D01*
X152685000Y-110202036D01*
X152660967Y-110217501D01*
X152449304Y-110527279D01*
X152374839Y-110895000D01*
X151774000Y-110895000D01*
X151774000Y-110586174D01*
X152598174Y-109762000D01*
X154195000Y-109762000D01*
X154204245Y-109760161D01*
X155070000Y-109760161D01*
X155177146Y-109740000D01*
X155546250Y-109740000D01*
X155705000Y-109581250D01*
X155705000Y-109507964D01*
X155729033Y-109492499D01*
X155940696Y-109182721D01*
X156008454Y-108848122D01*
X156268591Y-109477703D01*
M02*
