G04 #@! TF.FileFunction,Copper,L1,Top,Signal*
%FSLAX46Y46*%
G04 Gerber Fmt 4.6, Leading zero omitted, Abs format (unit mm)*
G04 Created by KiCad (PCBNEW 4.0.7) date 04/12/18 17:31:41*
%MOMM*%
%LPD*%
G01*
G04 APERTURE LIST*
%ADD10C,0.100000*%
%ADD11R,1.700000X1.700000*%
%ADD12O,1.700000X1.700000*%
%ADD13R,1.750000X0.550000*%
%ADD14C,0.500000*%
%ADD15C,0.254000*%
G04 APERTURE END LIST*
D10*
D11*
X153162000Y-116332000D03*
D12*
X150622000Y-116332000D03*
X148082000Y-116332000D03*
D13*
X146795000Y-107315000D03*
X146795000Y-108585000D03*
X146795000Y-109855000D03*
X146795000Y-111125000D03*
X154195000Y-111125000D03*
X154195000Y-109855000D03*
X154195000Y-108585000D03*
X154195000Y-107315000D03*
D14*
X157353000Y-110363000D02*
X159004000Y-110363000D01*
X159004000Y-110363000D02*
X159258000Y-110109000D01*
X142240000Y-110109000D02*
X142240000Y-112268000D01*
X143256000Y-110998000D02*
X143256000Y-113538000D01*
X143256000Y-113538000D02*
X144589500Y-114871500D01*
X157162500Y-111823500D02*
X157607000Y-111379000D01*
X157607000Y-111379000D02*
X159004000Y-111379000D01*
X156146500Y-114490500D02*
X158242000Y-112395000D01*
X158623000Y-112395000D02*
X159131000Y-112903000D01*
X158242000Y-112395000D02*
X158623000Y-112395000D01*
X156210000Y-110871000D02*
X156210000Y-112776000D01*
X156210000Y-112776000D02*
X155067000Y-113919000D01*
X145034000Y-108458000D02*
X145034000Y-109601000D01*
X144272000Y-112903000D02*
X145034000Y-113665000D01*
X144272000Y-110363000D02*
X144272000Y-112903000D01*
X145034000Y-109601000D02*
X144272000Y-110363000D01*
X146795000Y-107315000D02*
X145288000Y-107315000D01*
X149479000Y-105918000D02*
X152146000Y-108585000D01*
X145288000Y-105918000D02*
X149479000Y-105918000D01*
X145034000Y-106172000D02*
X145288000Y-105918000D01*
X145034000Y-107061000D02*
X145034000Y-106172000D01*
X145288000Y-107315000D02*
X145034000Y-107061000D01*
X154195000Y-108585000D02*
X152146000Y-108585000D01*
X150622000Y-110109000D02*
X150622000Y-116332000D01*
X152146000Y-108585000D02*
X150622000Y-110109000D01*
X146795000Y-108585000D02*
X148463000Y-108585000D01*
X148082000Y-114046000D02*
X148082000Y-116332000D01*
X149225000Y-112903000D02*
X148082000Y-114046000D01*
X149225000Y-109347000D02*
X149225000Y-112903000D01*
X148463000Y-108585000D02*
X149225000Y-109347000D01*
X154195000Y-109855000D02*
X152654000Y-109855000D01*
X153162000Y-114173000D02*
X153162000Y-116332000D01*
X151892000Y-112903000D02*
X153162000Y-114173000D01*
X151892000Y-110617000D02*
X151892000Y-112903000D01*
X152654000Y-109855000D02*
X151892000Y-110617000D01*
D15*
G36*
X159564000Y-107355092D02*
X159564000Y-107601864D01*
X159459719Y-107349485D01*
X158972082Y-106860996D01*
X158334627Y-106596301D01*
X157644401Y-106595699D01*
X157006485Y-106859281D01*
X156517996Y-107346918D01*
X156253301Y-107984373D01*
X156252699Y-108674599D01*
X156516281Y-109312515D01*
X156854999Y-109651825D01*
X156727210Y-109737210D01*
X156535367Y-110024325D01*
X156530317Y-110049715D01*
X156210000Y-109986000D01*
X155871325Y-110053367D01*
X155705000Y-110164501D01*
X155705000Y-110140750D01*
X155546250Y-109982000D01*
X154322000Y-109982000D01*
X154322000Y-110002000D01*
X154068000Y-110002000D01*
X154068000Y-109982000D01*
X152843750Y-109982000D01*
X152685000Y-110140750D01*
X152685000Y-110256310D01*
X152781673Y-110489699D01*
X152791161Y-110499186D01*
X152723569Y-110598110D01*
X152672560Y-110850000D01*
X152672560Y-111400000D01*
X152716838Y-111635317D01*
X152855910Y-111851441D01*
X153068110Y-111996431D01*
X153320000Y-112047440D01*
X155070000Y-112047440D01*
X155305317Y-112003162D01*
X155325000Y-111990496D01*
X155325000Y-112409421D01*
X154441210Y-113293210D01*
X154249367Y-113580326D01*
X154181999Y-113919000D01*
X154249367Y-114257674D01*
X154441210Y-114544790D01*
X154728326Y-114736633D01*
X155067000Y-114804001D01*
X155314083Y-114754852D01*
X155328867Y-114829174D01*
X155520710Y-115116290D01*
X155807826Y-115308133D01*
X156146500Y-115375501D01*
X156485174Y-115308133D01*
X156772290Y-115116290D01*
X158432500Y-113456079D01*
X158505210Y-113528789D01*
X158664611Y-113635297D01*
X154645908Y-117654000D01*
X154438026Y-117654000D01*
X154550327Y-117541698D01*
X154647000Y-117308309D01*
X154647000Y-116617750D01*
X154488250Y-116459000D01*
X153289000Y-116459000D01*
X153289000Y-116479000D01*
X153035000Y-116479000D01*
X153035000Y-116459000D01*
X153015000Y-116459000D01*
X153015000Y-116205000D01*
X153035000Y-116205000D01*
X153035000Y-115005750D01*
X153289000Y-115005750D01*
X153289000Y-116205000D01*
X154488250Y-116205000D01*
X154647000Y-116046250D01*
X154647000Y-115355691D01*
X154550327Y-115122302D01*
X154371699Y-114943673D01*
X154138310Y-114847000D01*
X153447750Y-114847000D01*
X153289000Y-115005750D01*
X153035000Y-115005750D01*
X152876250Y-114847000D01*
X152185690Y-114847000D01*
X151952301Y-114943673D01*
X151773673Y-115122302D01*
X151701403Y-115296777D01*
X151672054Y-115252853D01*
X151507000Y-115142568D01*
X151507000Y-110475580D01*
X152512579Y-109470000D01*
X152685000Y-109470000D01*
X152685000Y-109569250D01*
X152843750Y-109728000D01*
X154068000Y-109728000D01*
X154068000Y-109708000D01*
X154322000Y-109708000D01*
X154322000Y-109728000D01*
X155546250Y-109728000D01*
X155705000Y-109569250D01*
X155705000Y-109453690D01*
X155608327Y-109220301D01*
X155598839Y-109210814D01*
X155666431Y-109111890D01*
X155717440Y-108860000D01*
X155717440Y-108310000D01*
X155673162Y-108074683D01*
X155592752Y-107949723D01*
X155666431Y-107841890D01*
X155717440Y-107590000D01*
X155717440Y-107040000D01*
X155673162Y-106804683D01*
X155534090Y-106588559D01*
X155321890Y-106443569D01*
X155070000Y-106392560D01*
X153320000Y-106392560D01*
X153084683Y-106436838D01*
X152868559Y-106575910D01*
X152723569Y-106788110D01*
X152672560Y-107040000D01*
X152672560Y-107590000D01*
X152693258Y-107700000D01*
X152512579Y-107700000D01*
X150678580Y-105866000D01*
X158074908Y-105866000D01*
X159564000Y-107355092D01*
X159564000Y-107355092D01*
G37*
X159564000Y-107355092D02*
X159564000Y-107601864D01*
X159459719Y-107349485D01*
X158972082Y-106860996D01*
X158334627Y-106596301D01*
X157644401Y-106595699D01*
X157006485Y-106859281D01*
X156517996Y-107346918D01*
X156253301Y-107984373D01*
X156252699Y-108674599D01*
X156516281Y-109312515D01*
X156854999Y-109651825D01*
X156727210Y-109737210D01*
X156535367Y-110024325D01*
X156530317Y-110049715D01*
X156210000Y-109986000D01*
X155871325Y-110053367D01*
X155705000Y-110164501D01*
X155705000Y-110140750D01*
X155546250Y-109982000D01*
X154322000Y-109982000D01*
X154322000Y-110002000D01*
X154068000Y-110002000D01*
X154068000Y-109982000D01*
X152843750Y-109982000D01*
X152685000Y-110140750D01*
X152685000Y-110256310D01*
X152781673Y-110489699D01*
X152791161Y-110499186D01*
X152723569Y-110598110D01*
X152672560Y-110850000D01*
X152672560Y-111400000D01*
X152716838Y-111635317D01*
X152855910Y-111851441D01*
X153068110Y-111996431D01*
X153320000Y-112047440D01*
X155070000Y-112047440D01*
X155305317Y-112003162D01*
X155325000Y-111990496D01*
X155325000Y-112409421D01*
X154441210Y-113293210D01*
X154249367Y-113580326D01*
X154181999Y-113919000D01*
X154249367Y-114257674D01*
X154441210Y-114544790D01*
X154728326Y-114736633D01*
X155067000Y-114804001D01*
X155314083Y-114754852D01*
X155328867Y-114829174D01*
X155520710Y-115116290D01*
X155807826Y-115308133D01*
X156146500Y-115375501D01*
X156485174Y-115308133D01*
X156772290Y-115116290D01*
X158432500Y-113456079D01*
X158505210Y-113528789D01*
X158664611Y-113635297D01*
X154645908Y-117654000D01*
X154438026Y-117654000D01*
X154550327Y-117541698D01*
X154647000Y-117308309D01*
X154647000Y-116617750D01*
X154488250Y-116459000D01*
X153289000Y-116459000D01*
X153289000Y-116479000D01*
X153035000Y-116479000D01*
X153035000Y-116459000D01*
X153015000Y-116459000D01*
X153015000Y-116205000D01*
X153035000Y-116205000D01*
X153035000Y-115005750D01*
X153289000Y-115005750D01*
X153289000Y-116205000D01*
X154488250Y-116205000D01*
X154647000Y-116046250D01*
X154647000Y-115355691D01*
X154550327Y-115122302D01*
X154371699Y-114943673D01*
X154138310Y-114847000D01*
X153447750Y-114847000D01*
X153289000Y-115005750D01*
X153035000Y-115005750D01*
X152876250Y-114847000D01*
X152185690Y-114847000D01*
X151952301Y-114943673D01*
X151773673Y-115122302D01*
X151701403Y-115296777D01*
X151672054Y-115252853D01*
X151507000Y-115142568D01*
X151507000Y-110475580D01*
X152512579Y-109470000D01*
X152685000Y-109470000D01*
X152685000Y-109569250D01*
X152843750Y-109728000D01*
X154068000Y-109728000D01*
X154068000Y-109708000D01*
X154322000Y-109708000D01*
X154322000Y-109728000D01*
X155546250Y-109728000D01*
X155705000Y-109569250D01*
X155705000Y-109453690D01*
X155608327Y-109220301D01*
X155598839Y-109210814D01*
X155666431Y-109111890D01*
X155717440Y-108860000D01*
X155717440Y-108310000D01*
X155673162Y-108074683D01*
X155592752Y-107949723D01*
X155666431Y-107841890D01*
X155717440Y-107590000D01*
X155717440Y-107040000D01*
X155673162Y-106804683D01*
X155534090Y-106588559D01*
X155321890Y-106443569D01*
X155070000Y-106392560D01*
X153320000Y-106392560D01*
X153084683Y-106436838D01*
X152868559Y-106575910D01*
X152723569Y-106788110D01*
X152672560Y-107040000D01*
X152672560Y-107590000D01*
X152693258Y-107700000D01*
X152512579Y-107700000D01*
X150678580Y-105866000D01*
X158074908Y-105866000D01*
X159564000Y-107355092D01*
M02*
