G04 #@! TF.FileFunction,Copper,L1,Top,Signal*
%FSLAX46Y46*%
G04 Gerber Fmt 4.6, Leading zero omitted, Abs format (unit mm)*
G04 Created by KiCad (PCBNEW 4.0.7-e2-6376~58~ubuntu16.04.1) date Mon Apr 16 18:52:34 2018*
%MOMM*%
%LPD*%
G01*
G04 APERTURE LIST*
%ADD10C,0.100000*%
%ADD11R,1.750000X0.460000*%
%ADD12R,1.700000X1.700000*%
%ADD13O,1.700000X1.700000*%
%ADD14C,0.450000*%
G04 APERTURE END LIST*
D10*
D11*
X146795000Y-107315000D03*
X146795000Y-108585000D03*
X146795000Y-109855000D03*
X146795000Y-111125000D03*
X154195000Y-111125000D03*
X154195000Y-109855000D03*
X154195000Y-108585000D03*
X154195000Y-107315000D03*
D12*
X148082000Y-116840000D03*
D13*
X148082000Y-114300000D03*
X150622000Y-116840000D03*
X150622000Y-114300000D03*
X153162000Y-116840000D03*
X153162000Y-114300000D03*
D14*
X150622000Y-110109000D02*
X150622000Y-111252000D01*
X150622000Y-111252000D02*
X153162000Y-113792000D01*
X153162000Y-113792000D02*
X153162000Y-114300000D01*
X146795000Y-107315000D02*
X145288000Y-107315000D01*
X149479000Y-105918000D02*
X152146000Y-108585000D01*
X145288000Y-105918000D02*
X149479000Y-105918000D01*
X145034000Y-106172000D02*
X145288000Y-105918000D01*
X145034000Y-107061000D02*
X145034000Y-106172000D01*
X145288000Y-107315000D02*
X145034000Y-107061000D01*
X154195000Y-108585000D02*
X152146000Y-108585000D01*
X152146000Y-108585000D02*
X150622000Y-110109000D01*
X150622000Y-110109000D02*
X150622000Y-110109000D01*
X149225000Y-109347000D02*
X149225000Y-111887000D01*
X148463000Y-108585000D02*
X149225000Y-109347000D01*
X146795000Y-108585000D02*
X148463000Y-108585000D01*
X150622000Y-113284000D02*
X150622000Y-114300000D01*
X149225000Y-111887000D02*
X150622000Y-113284000D01*
X146795000Y-111125000D02*
X145415000Y-111125000D01*
X150622000Y-118110000D02*
X150622000Y-116840000D01*
X149860000Y-118872000D02*
X150622000Y-118110000D01*
X146304000Y-118872000D02*
X149860000Y-118872000D01*
X145034000Y-117602000D02*
X146304000Y-118872000D01*
X145034000Y-111506000D02*
X145034000Y-117602000D01*
X145415000Y-111125000D02*
X145034000Y-111506000D01*
X154195000Y-109855000D02*
X155575000Y-109855000D01*
X154432000Y-116840000D02*
X153162000Y-116840000D01*
X156210000Y-115062000D02*
X154432000Y-116840000D01*
X156210000Y-110490000D02*
X156210000Y-115062000D01*
X155575000Y-109855000D02*
X156210000Y-110490000D01*
M02*
